<mxfile host="app.diagrams.net" modified="2024-01-24T02:21:47.728Z" agent="Mozilla/5.0 (Windows NT 10.0; Win64; x64) AppleWebKit/537.36 (KHTML, like Gecko) Chrome/120.0.0.0 Safari/537.36" etag="94LL7NZG1jJbU3bMQ9tt" version="22.1.21" type="github">
  <diagram name="페이지-1" id="i4kZyCOu4kcTUlXigqUq">
    <mxGraphModel dx="1647" dy="-150" grid="1" gridSize="10" guides="1" tooltips="1" connect="1" arrows="1" fold="1" page="1" pageScale="1" pageWidth="827" pageHeight="1169" math="0" shadow="0">
      <root>
        <mxCell id="0" />
        <mxCell id="1" parent="0" />
        <mxCell id="JR--cD0cvc0XQbJhbA4U-1" value="" style="rounded=0;whiteSpace=wrap;html=1;align=left;" parent="1" vertex="1">
          <mxGeometry x="30" y="1185" width="760" height="535" as="geometry" />
        </mxCell>
        <mxCell id="JR--cD0cvc0XQbJhbA4U-3" value="고전압 센싱IC 홀수 셀 밸런싱" style="rounded=0;whiteSpace=wrap;html=1;align=center;" parent="1" vertex="1">
          <mxGeometry x="30" y="1185" width="210" height="27" as="geometry" />
        </mxCell>
        <mxCell id="JR--cD0cvc0XQbJhbA4U-2" value="시작" style="strokeWidth=2;html=1;shape=mxgraph.flowchart.terminator;whiteSpace=wrap;" parent="1" vertex="1">
          <mxGeometry x="334.75" y="1208" width="80" height="50" as="geometry" />
        </mxCell>
        <mxCell id="JR--cD0cvc0XQbJhbA4U-4" value="[검사 조건 설정]&lt;br&gt;&lt;br&gt;1. 전압 인가&lt;br&gt;&amp;nbsp; &amp;nbsp; - B+BATT, LATCH SEN, B+LDC, IG3 = 13.8V&lt;br&gt;&amp;nbsp; &amp;nbsp; - 고전압 배터리 셀 전압 : 4V&lt;br&gt;&lt;br&gt;2. CAN을 통해&amp;nbsp;ODD 셀 밸런싱 설정 (1로 설정)&lt;br style=&quot;border-color: var(--border-color);&quot;&gt;&amp;nbsp; &amp;nbsp; - CAN Rx Msg : 셀 밸런싱 (&lt;font style=&quot;border-color: var(--border-color);&quot; color=&quot;#0066cc&quot;&gt;P2_Rx_CELL_BAL_CH&lt;/font&gt;)" style="rounded=0;whiteSpace=wrap;html=1;align=left;" parent="1" vertex="1">
          <mxGeometry x="191.07" y="1280" width="370.94" height="140" as="geometry" />
        </mxCell>
        <mxCell id="JR--cD0cvc0XQbJhbA4U-5" value="" style="endArrow=classic;html=1;rounded=0;exitX=0.5;exitY=1;exitDx=0;exitDy=0;exitPerimeter=0;entryX=0.5;entryY=0;entryDx=0;entryDy=0;" parent="1" target="JR--cD0cvc0XQbJhbA4U-4" edge="1">
          <mxGeometry width="50" height="50" relative="1" as="geometry">
            <mxPoint x="375" y="1258" as="sourcePoint" />
            <mxPoint x="150.75" y="1258" as="targetPoint" />
          </mxGeometry>
        </mxCell>
        <mxCell id="JR--cD0cvc0XQbJhbA4U-10" value="[정상 동작 확인]&lt;br&gt;&lt;br&gt;1. ODD 채널의 DUTY와 전류 확인" style="rounded=0;whiteSpace=wrap;html=1;align=left;" parent="1" vertex="1">
          <mxGeometry x="247.75" y="1460" width="254.25" height="58" as="geometry" />
        </mxCell>
        <mxCell id="JR--cD0cvc0XQbJhbA4U-12" value="" style="endArrow=classic;html=1;rounded=0;exitX=0.5;exitY=1;exitDx=0;exitDy=0;" parent="1" source="JR--cD0cvc0XQbJhbA4U-4" target="JR--cD0cvc0XQbJhbA4U-10" edge="1">
          <mxGeometry width="50" height="50" relative="1" as="geometry">
            <mxPoint x="375.74" y="1458" as="sourcePoint" />
            <mxPoint x="600.14" y="1438" as="targetPoint" />
          </mxGeometry>
        </mxCell>
        <mxCell id="JR--cD0cvc0XQbJhbA4U-9" value="DUTY 및 소모전류가 정상인가?&lt;br&gt;(DUTY = 30% &amp;amp;&amp;amp;&amp;nbsp;10mA &amp;lt;= 전류)" style="rhombus;whiteSpace=wrap;html=1;" parent="1" vertex="1">
          <mxGeometry x="228.06" y="1548" width="291.88" height="80" as="geometry" />
        </mxCell>
        <mxCell id="JR--cD0cvc0XQbJhbA4U-11" value="NG" style="rounded=0;whiteSpace=wrap;html=1;align=center;" parent="1" vertex="1">
          <mxGeometry x="570" y="1573" width="68.26" height="30" as="geometry" />
        </mxCell>
        <mxCell id="JR--cD0cvc0XQbJhbA4U-13" value="" style="endArrow=classic;html=1;rounded=0;exitX=0.5;exitY=1;exitDx=0;exitDy=0;" parent="1" source="JR--cD0cvc0XQbJhbA4U-10" target="JR--cD0cvc0XQbJhbA4U-9" edge="1">
          <mxGeometry width="50" height="50" relative="1" as="geometry">
            <mxPoint x="520.14" y="1528" as="sourcePoint" />
            <mxPoint x="570.14" y="1478" as="targetPoint" />
          </mxGeometry>
        </mxCell>
        <mxCell id="JR--cD0cvc0XQbJhbA4U-14" value="" style="endArrow=classic;html=1;rounded=0;exitX=1;exitY=0.5;exitDx=0;exitDy=0;entryX=0;entryY=0.5;entryDx=0;entryDy=0;" parent="1" source="JR--cD0cvc0XQbJhbA4U-9" target="JR--cD0cvc0XQbJhbA4U-11" edge="1">
          <mxGeometry width="50" height="50" relative="1" as="geometry">
            <mxPoint x="520.14" y="1498" as="sourcePoint" />
            <mxPoint x="570.14" y="1448" as="targetPoint" />
          </mxGeometry>
        </mxCell>
        <mxCell id="JR--cD0cvc0XQbJhbA4U-15" value="" style="endArrow=classic;html=1;rounded=0;exitX=0.5;exitY=1;exitDx=0;exitDy=0;entryX=0.505;entryY=-0.023;entryDx=0;entryDy=0;entryPerimeter=0;" parent="1" target="JR--cD0cvc0XQbJhbA4U-23" edge="1">
          <mxGeometry width="50" height="50" relative="1" as="geometry">
            <mxPoint x="375.14" y="1628" as="sourcePoint" />
            <mxPoint x="375.14" y="1662" as="targetPoint" />
          </mxGeometry>
        </mxCell>
        <mxCell id="JR--cD0cvc0XQbJhbA4U-23" value="종료" style="strokeWidth=2;html=1;shape=mxgraph.flowchart.terminator;whiteSpace=wrap;" parent="1" vertex="1">
          <mxGeometry x="335.01" y="1658" width="80" height="50" as="geometry" />
        </mxCell>
        <mxCell id="koRfIj1f8GouPtY5T9lE-1" value="yes" style="text;html=1;strokeColor=none;fillColor=none;align=center;verticalAlign=middle;whiteSpace=wrap;rounded=0;" parent="1" vertex="1">
          <mxGeometry x="360.14" y="1621" width="60" height="30" as="geometry" />
        </mxCell>
        <mxCell id="koRfIj1f8GouPtY5T9lE-2" value="no" style="text;html=1;strokeColor=none;fillColor=none;align=center;verticalAlign=middle;whiteSpace=wrap;rounded=0;" parent="1" vertex="1">
          <mxGeometry x="501.86" y="1560.5" width="60" height="30" as="geometry" />
        </mxCell>
        <mxCell id="koRfIj1f8GouPtY5T9lE-5" value="" style="rounded=0;whiteSpace=wrap;html=1;align=left;" parent="1" vertex="1">
          <mxGeometry x="30" y="1760" width="760" height="530" as="geometry" />
        </mxCell>
        <mxCell id="koRfIj1f8GouPtY5T9lE-6" value="고전압 센싱IC 짝수 셀 밸런싱" style="rounded=0;whiteSpace=wrap;html=1;align=center;" parent="1" vertex="1">
          <mxGeometry x="30" y="1760" width="210" height="27" as="geometry" />
        </mxCell>
        <mxCell id="koRfIj1f8GouPtY5T9lE-9" value="시작" style="strokeWidth=2;html=1;shape=mxgraph.flowchart.terminator;whiteSpace=wrap;" parent="1" vertex="1">
          <mxGeometry x="334.75" y="1783" width="80" height="50" as="geometry" />
        </mxCell>
        <mxCell id="koRfIj1f8GouPtY5T9lE-10" value="[검사 조건 설정]&lt;br&gt;&lt;br&gt;1. 전압 인가&lt;br&gt;&amp;nbsp; &amp;nbsp; - B+BATT, LATCH SEN, B+LDC, IG3 = 13.8V&lt;br&gt;&amp;nbsp; &amp;nbsp; - 고전압 배터리 셀 전압 : 4V&lt;br&gt;&lt;br&gt;2. CAN을 통해 EVEN 셀 밸런싱 설정 (2로 설정)&lt;br style=&quot;border-color: var(--border-color);&quot;&gt;&amp;nbsp; &amp;nbsp; - CAN Rx Msg : 셀 밸런싱 (&lt;font style=&quot;border-color: var(--border-color);&quot; color=&quot;#0066cc&quot;&gt;P2_Rx_CELL_BAL_CH&lt;/font&gt;)" style="rounded=0;whiteSpace=wrap;html=1;align=left;" parent="1" vertex="1">
          <mxGeometry x="188.61" y="1860" width="372.25" height="130" as="geometry" />
        </mxCell>
        <mxCell id="koRfIj1f8GouPtY5T9lE-11" value="" style="endArrow=classic;html=1;rounded=0;exitX=0.5;exitY=1;exitDx=0;exitDy=0;exitPerimeter=0;entryX=0.5;entryY=0;entryDx=0;entryDy=0;" parent="1" target="koRfIj1f8GouPtY5T9lE-10" edge="1">
          <mxGeometry width="50" height="50" relative="1" as="geometry">
            <mxPoint x="375" y="1833" as="sourcePoint" />
            <mxPoint x="150.75" y="1833" as="targetPoint" />
          </mxGeometry>
        </mxCell>
        <mxCell id="koRfIj1f8GouPtY5T9lE-24" value="DUTY 및 소모전류가 정상인가?&lt;br&gt;(DUTY = 30% &amp;amp;&amp;amp;&amp;nbsp;10mA &amp;lt;= 전류)" style="rhombus;whiteSpace=wrap;html=1;" parent="1" vertex="1">
          <mxGeometry x="233.13" y="2110" width="281.74" height="80" as="geometry" />
        </mxCell>
        <mxCell id="koRfIj1f8GouPtY5T9lE-25" value="[정상 동작 확인]&lt;br&gt;&lt;br&gt;1. EVEN 채널의 DUTY와 전류 확인" style="rounded=0;whiteSpace=wrap;html=1;align=left;" parent="1" vertex="1">
          <mxGeometry x="247.61" y="2020" width="254.25" height="60" as="geometry" />
        </mxCell>
        <mxCell id="koRfIj1f8GouPtY5T9lE-26" value="NG" style="rounded=0;whiteSpace=wrap;html=1;align=center;" parent="1" vertex="1">
          <mxGeometry x="580" y="2135" width="68.26" height="30" as="geometry" />
        </mxCell>
        <mxCell id="koRfIj1f8GouPtY5T9lE-27" value="" style="endArrow=classic;html=1;rounded=0;exitX=0.5;exitY=1;exitDx=0;exitDy=0;" parent="1" source="koRfIj1f8GouPtY5T9lE-10" target="koRfIj1f8GouPtY5T9lE-25" edge="1">
          <mxGeometry width="50" height="50" relative="1" as="geometry">
            <mxPoint x="374.7449999999999" y="2020" as="sourcePoint" />
            <mxPoint x="600" y="2000" as="targetPoint" />
          </mxGeometry>
        </mxCell>
        <mxCell id="koRfIj1f8GouPtY5T9lE-28" value="" style="endArrow=classic;html=1;rounded=0;exitX=0.5;exitY=1;exitDx=0;exitDy=0;" parent="1" source="koRfIj1f8GouPtY5T9lE-25" target="koRfIj1f8GouPtY5T9lE-24" edge="1">
          <mxGeometry width="50" height="50" relative="1" as="geometry">
            <mxPoint x="520" y="2090" as="sourcePoint" />
            <mxPoint x="570" y="2040" as="targetPoint" />
          </mxGeometry>
        </mxCell>
        <mxCell id="koRfIj1f8GouPtY5T9lE-29" value="" style="endArrow=classic;html=1;rounded=0;exitX=1;exitY=0.5;exitDx=0;exitDy=0;entryX=0;entryY=0.5;entryDx=0;entryDy=0;" parent="1" source="koRfIj1f8GouPtY5T9lE-24" target="koRfIj1f8GouPtY5T9lE-26" edge="1">
          <mxGeometry width="50" height="50" relative="1" as="geometry">
            <mxPoint x="520" y="2060" as="sourcePoint" />
            <mxPoint x="570" y="2010" as="targetPoint" />
          </mxGeometry>
        </mxCell>
        <mxCell id="koRfIj1f8GouPtY5T9lE-30" value="종료" style="strokeWidth=2;html=1;shape=mxgraph.flowchart.terminator;whiteSpace=wrap;" parent="1" vertex="1">
          <mxGeometry x="334" y="2227" width="80" height="50" as="geometry" />
        </mxCell>
        <mxCell id="koRfIj1f8GouPtY5T9lE-31" value="" style="endArrow=classic;html=1;rounded=0;exitX=0.5;exitY=1;exitDx=0;exitDy=0;entryX=0.5;entryY=0;entryDx=0;entryDy=0;entryPerimeter=0;" parent="1" source="koRfIj1f8GouPtY5T9lE-24" target="koRfIj1f8GouPtY5T9lE-30" edge="1">
          <mxGeometry width="50" height="50" relative="1" as="geometry">
            <mxPoint x="450" y="2227" as="sourcePoint" />
            <mxPoint x="500" y="2177" as="targetPoint" />
          </mxGeometry>
        </mxCell>
        <mxCell id="koRfIj1f8GouPtY5T9lE-34" value="yes" style="text;html=1;strokeColor=none;fillColor=none;align=center;verticalAlign=middle;whiteSpace=wrap;rounded=0;" parent="1" vertex="1">
          <mxGeometry x="360" y="2181" width="60" height="30" as="geometry" />
        </mxCell>
        <mxCell id="koRfIj1f8GouPtY5T9lE-35" value="no" style="text;html=1;strokeColor=none;fillColor=none;align=center;verticalAlign=middle;whiteSpace=wrap;rounded=0;" parent="1" vertex="1">
          <mxGeometry x="502.01" y="2121" width="60" height="30" as="geometry" />
        </mxCell>
      </root>
    </mxGraphModel>
  </diagram>
</mxfile>
